<svg width="714" height="222" viewBox="0 0 714 222" fill="none" xmlns="http://www.w3.org/2000/svg">
<path d="M221.104 215.726V205.862H219.874V215.726H221.104ZM223.469 215.726H224.645V211.365C224.645 210.073 225.404 209.287 226.58 209.287C227.756 209.287 228.316 209.916 228.316 211.242V215.726H229.492V210.955C229.492 209.205 228.569 208.227 226.915 208.227C225.787 208.227 225.069 208.706 224.7 209.519H224.591V208.357H223.469V215.726ZM232.137 206.45V208.357H230.948V209.342H232.137V213.812C232.137 215.22 232.746 215.781 234.263 215.781C234.496 215.781 234.721 215.754 234.954 215.713V214.721C234.735 214.742 234.619 214.749 234.407 214.749C233.641 214.749 233.313 214.38 233.313 213.511V209.342H234.954V208.357H233.313V206.45H232.137ZM239.561 209.266C240.73 209.266 241.51 210.128 241.537 211.433H237.476C237.565 210.128 238.385 209.266 239.561 209.266ZM241.503 213.819C241.195 214.469 240.552 214.817 239.602 214.817C238.351 214.817 237.538 213.894 237.476 212.438V212.384H242.774V211.932C242.774 209.642 241.564 208.227 239.575 208.227C237.551 208.227 236.253 209.731 236.253 212.049C236.253 214.38 237.531 215.856 239.575 215.856C241.188 215.856 242.323 215.084 242.678 213.819H241.503ZM244.62 215.726H245.796V211.365C245.796 210.073 246.554 209.287 247.73 209.287C248.906 209.287 249.467 209.916 249.467 211.242V215.726H250.642V210.955C250.642 209.205 249.719 208.227 248.065 208.227C246.937 208.227 246.219 208.706 245.85 209.519H245.741V208.357H244.62V215.726ZM253.288 206.45V208.357H252.098V209.342H253.288V213.812C253.288 215.22 253.896 215.781 255.414 215.781C255.646 215.781 255.872 215.754 256.104 215.713V214.721C255.885 214.742 255.769 214.749 255.557 214.749C254.792 214.749 254.464 214.38 254.464 213.511V209.342H256.104V208.357H254.464V206.45H253.288ZM260.151 214.824C259.297 214.824 258.661 214.386 258.661 213.635C258.661 212.896 259.153 212.507 260.274 212.431L262.257 212.302V212.978C262.257 214.031 261.361 214.824 260.151 214.824ZM259.932 215.856C260.917 215.856 261.723 215.426 262.202 214.639H262.311V215.726H263.432V210.681C263.432 209.15 262.427 208.227 260.63 208.227C259.057 208.227 257.895 209.007 257.738 210.189H258.927C259.092 209.608 259.707 209.273 260.589 209.273C261.689 209.273 262.257 209.772 262.257 210.681V211.351L260.131 211.481C258.415 211.584 257.444 212.343 257.444 213.662C257.444 215.009 258.504 215.856 259.932 215.856ZM269.557 215.726H270.733V211.16C270.733 210.121 271.547 209.369 272.668 209.369C272.9 209.369 273.324 209.41 273.42 209.437V208.261C273.269 208.241 273.023 208.227 272.832 208.227C271.854 208.227 271.007 208.733 270.788 209.451H270.678V208.357H269.557V215.726ZM277.624 209.266C278.793 209.266 279.572 210.128 279.599 211.433H275.539C275.628 210.128 276.448 209.266 277.624 209.266ZM279.565 213.819C279.258 214.469 278.615 214.817 277.665 214.817C276.414 214.817 275.6 213.894 275.539 212.438V212.384H280.837V211.932C280.837 209.642 279.627 208.227 277.637 208.227C275.614 208.227 274.315 209.731 274.315 212.049C274.315 214.38 275.593 215.856 277.637 215.856C279.251 215.856 280.385 215.084 280.741 213.819H279.565ZM288.78 210.613C288.575 209.301 287.481 208.227 285.69 208.227C283.626 208.227 282.313 209.718 282.313 212.014C282.313 214.359 283.633 215.856 285.697 215.856C287.468 215.856 288.568 214.858 288.78 213.505H287.591C287.372 214.339 286.681 214.797 285.69 214.797C284.378 214.797 283.53 213.717 283.53 212.014C283.53 210.346 284.364 209.287 285.69 209.287C286.75 209.287 287.399 209.882 287.591 210.613H288.78ZM292.786 214.824C291.931 214.824 291.296 214.386 291.296 213.635C291.296 212.896 291.788 212.507 292.909 212.431L294.891 212.302V212.978C294.891 214.031 293.996 214.824 292.786 214.824ZM292.567 215.856C293.551 215.856 294.358 215.426 294.837 214.639H294.946V215.726H296.067V210.681C296.067 209.15 295.062 208.227 293.264 208.227C291.692 208.227 290.53 209.007 290.373 210.189H291.562C291.726 209.608 292.342 209.273 293.223 209.273C294.324 209.273 294.891 209.772 294.891 210.681V211.351L292.765 211.481C291.05 211.584 290.079 212.343 290.079 213.662C290.079 215.009 291.138 215.856 292.567 215.856ZM298.241 215.726H299.417V211.16C299.417 210.121 300.23 209.369 301.351 209.369C301.584 209.369 302.008 209.41 302.103 209.437V208.261C301.953 208.241 301.707 208.227 301.515 208.227C300.538 208.227 299.69 208.733 299.471 209.451H299.362V208.357H298.241V215.726ZM306.348 214.578C304.981 214.578 304.216 213.539 304.216 211.932C304.216 210.326 304.981 209.287 306.348 209.287C307.709 209.287 308.536 210.326 308.536 211.932C308.536 213.539 307.716 214.578 306.348 214.578ZM306.403 218.556C308.413 218.556 309.684 217.504 309.684 215.856V208.357H308.563V209.526H308.454C308.03 208.733 307.121 208.227 306.089 208.227C304.195 208.227 302.999 209.724 302.999 211.932C302.999 214.14 304.181 215.617 306.089 215.617C307.1 215.617 307.934 215.159 308.399 214.345H308.509V215.795C308.509 216.882 307.722 217.531 306.403 217.531C305.343 217.531 304.687 217.141 304.557 216.54H303.313C303.491 217.757 304.626 218.556 306.403 218.556ZM314.169 214.824C313.314 214.824 312.678 214.386 312.678 213.635C312.678 212.896 313.171 212.507 314.292 212.431L316.274 212.302V212.978C316.274 214.031 315.379 214.824 314.169 214.824ZM313.95 215.856C314.934 215.856 315.741 215.426 316.219 214.639H316.329V215.726H317.45V210.681C317.45 209.15 316.445 208.227 314.647 208.227C313.075 208.227 311.913 209.007 311.756 210.189H312.945C313.109 209.608 313.724 209.273 314.606 209.273C315.707 209.273 316.274 209.772 316.274 210.681V211.351L314.148 211.481C312.432 211.584 311.462 212.343 311.462 213.662C311.462 215.009 312.521 215.856 313.95 215.856ZM319.624 215.726H320.8V211.365C320.8 210.073 321.558 209.287 322.734 209.287C323.91 209.287 324.47 209.916 324.47 211.242V215.726H325.646V210.955C325.646 209.205 324.723 208.227 323.069 208.227C321.941 208.227 321.223 208.706 320.854 209.519H320.745V208.357H319.624V215.726ZM330.527 215.856C331.546 215.856 332.421 215.371 332.885 214.551H332.995V215.726H334.116V205.431H332.94V209.519H332.838C332.421 208.713 331.552 208.227 330.527 208.227C328.654 208.227 327.43 209.731 327.43 212.042C327.43 214.359 328.64 215.856 330.527 215.856ZM330.801 209.287C332.134 209.287 332.968 210.353 332.968 212.042C332.968 213.744 332.14 214.797 330.801 214.797C329.454 214.797 328.647 213.764 328.647 212.042C328.647 210.326 329.461 209.287 330.801 209.287ZM339.427 215.856C341.526 215.856 342.825 214.407 342.825 212.042C342.825 209.67 341.526 208.227 339.427 208.227C337.329 208.227 336.03 209.67 336.03 212.042C336.03 214.407 337.329 215.856 339.427 215.856ZM339.427 214.797C338.033 214.797 337.247 213.785 337.247 212.042C337.247 210.292 338.033 209.287 339.427 209.287C340.822 209.287 341.608 210.292 341.608 212.042C341.608 213.785 340.822 214.797 339.427 214.797ZM348.622 215.726H349.798V211.365C349.798 210.073 350.556 209.287 351.732 209.287C352.908 209.287 353.468 209.916 353.468 211.242V215.726H354.644V210.955C354.644 209.205 353.721 208.227 352.067 208.227C350.939 208.227 350.221 208.706 349.852 209.519H349.743V208.357H348.622V215.726ZM362.759 208.357H361.583V212.719C361.583 214.01 360.872 214.783 359.573 214.783C358.397 214.783 357.905 214.168 357.905 212.842V208.357H356.729V213.129C356.729 214.872 357.591 215.856 359.245 215.856C360.373 215.856 361.159 215.391 361.528 214.571H361.637V215.726H362.759V208.357ZM367.913 209.266C369.082 209.266 369.861 210.128 369.888 211.433H365.828C365.917 210.128 366.737 209.266 367.913 209.266ZM369.854 213.819C369.547 214.469 368.904 214.817 367.954 214.817C366.703 214.817 365.889 213.894 365.828 212.438V212.384H371.126V211.932C371.126 209.642 369.916 208.227 367.926 208.227C365.903 208.227 364.604 209.731 364.604 212.049C364.604 214.38 365.883 215.856 367.926 215.856C369.54 215.856 370.675 215.084 371.03 213.819H369.854ZM378.85 208.357H377.593L375.576 214.427H375.467L373.45 208.357H372.192L374.92 215.726H376.123L378.85 208.357ZM382.419 214.824C381.564 214.824 380.928 214.386 380.928 213.635C380.928 212.896 381.421 212.507 382.542 212.431L384.524 212.302V212.978C384.524 214.031 383.629 214.824 382.419 214.824ZM382.2 215.856C383.184 215.856 383.991 215.426 384.469 214.639H384.579V215.726H385.7V210.681C385.7 209.15 384.695 208.227 382.897 208.227C381.325 208.227 380.163 209.007 380.006 210.189H381.195C381.359 209.608 381.974 209.273 382.856 209.273C383.957 209.273 384.524 209.772 384.524 210.681V211.351L382.398 211.481C380.682 211.584 379.712 212.343 379.712 213.662C379.712 215.009 380.771 215.856 382.2 215.856ZM387.874 215.726H389.05V211.16C389.05 210.121 389.795 209.287 390.759 209.287C391.688 209.287 392.297 209.847 392.297 210.722V215.726H393.472V210.989C393.472 210.052 394.156 209.287 395.181 209.287C396.22 209.287 396.733 209.82 396.733 210.907V215.726H397.909V210.634C397.909 209.089 397.068 208.227 395.564 208.227C394.546 208.227 393.705 208.74 393.308 209.519H393.199C392.857 208.754 392.16 208.227 391.162 208.227C390.177 208.227 389.439 208.699 389.104 209.519H388.995V208.357H387.874V215.726ZM402.995 209.266C404.164 209.266 404.943 210.128 404.97 211.433H400.91C400.999 210.128 401.819 209.266 402.995 209.266ZM404.936 213.819C404.629 214.469 403.986 214.817 403.036 214.817C401.785 214.817 400.971 213.894 400.91 212.438V212.384H406.208V211.932C406.208 209.642 404.998 208.227 403.009 208.227C400.985 208.227 399.686 209.731 399.686 212.049C399.686 214.38 400.965 215.856 403.009 215.856C404.622 215.856 405.757 215.084 406.112 213.819H404.936ZM408.053 215.726H409.229V211.365C409.229 210.073 409.988 209.287 411.164 209.287C412.34 209.287 412.9 209.916 412.9 211.242V215.726H414.076V210.955C414.076 209.205 413.153 208.227 411.499 208.227C410.371 208.227 409.653 208.706 409.284 209.519H409.175V208.357H408.053V215.726ZM416.721 206.45V208.357H415.532V209.342H416.721V213.812C416.721 215.22 417.33 215.781 418.847 215.781C419.08 215.781 419.305 215.754 419.538 215.713V214.721C419.319 214.742 419.203 214.749 418.991 214.749C418.225 214.749 417.897 214.38 417.897 213.511V209.342H419.538V208.357H417.897V206.45H416.721ZM424.145 209.266C425.314 209.266 426.094 210.128 426.121 211.433H422.06C422.149 210.128 422.969 209.266 424.145 209.266ZM426.087 213.819C425.779 214.469 425.136 214.817 424.186 214.817C422.935 214.817 422.122 213.894 422.06 212.438V212.384H427.358V211.932C427.358 209.642 426.148 208.227 424.159 208.227C422.135 208.227 420.837 209.731 420.837 212.049C420.837 214.38 422.115 215.856 424.159 215.856C425.772 215.856 426.907 215.084 427.262 213.819H426.087ZM433.223 215.726H434.399V205.431H433.223V215.726ZM438.952 214.824C438.097 214.824 437.462 214.386 437.462 213.635C437.462 212.896 437.954 212.507 439.075 212.431L441.057 212.302V212.978C441.057 214.031 440.162 214.824 438.952 214.824ZM438.733 215.856C439.718 215.856 440.524 215.426 441.003 214.639H441.112V215.726H442.233V210.681C442.233 209.15 441.228 208.227 439.43 208.227C437.858 208.227 436.696 209.007 436.539 210.189H437.728C437.892 209.608 438.508 209.273 439.389 209.273C440.49 209.273 441.057 209.772 441.057 210.681V211.351L438.931 211.481C437.216 211.584 436.245 212.343 436.245 213.662C436.245 215.009 437.304 215.856 438.733 215.856ZM451.947 208.227C450.942 208.227 450.06 208.74 449.589 209.588H449.479V208.357H448.358V218.187H449.534V214.619H449.643C450.047 215.398 450.894 215.856 451.947 215.856C453.82 215.856 455.044 214.345 455.044 212.042C455.044 209.724 453.827 208.227 451.947 208.227ZM451.667 214.797C450.341 214.797 449.5 213.73 449.5 212.042C449.5 210.346 450.341 209.287 451.674 209.287C453.02 209.287 453.827 210.319 453.827 212.042C453.827 213.764 453.02 214.797 451.667 214.797ZM459.159 214.824C458.304 214.824 457.669 214.386 457.669 213.635C457.669 212.896 458.161 212.507 459.282 212.431L461.264 212.302V212.978C461.264 214.031 460.369 214.824 459.159 214.824ZM458.94 215.856C459.925 215.856 460.731 215.426 461.21 214.639H461.319V215.726H462.44V210.681C462.44 209.15 461.435 208.227 459.637 208.227C458.065 208.227 456.903 209.007 456.746 210.189H457.935C458.099 209.608 458.715 209.273 459.596 209.273C460.697 209.273 461.264 209.772 461.264 210.681V211.351L459.138 211.481C457.423 211.584 456.452 212.343 456.452 213.662C456.452 215.009 457.511 215.856 458.94 215.856ZM460.184 207.093L462.085 204.782H460.581L458.858 207.093H460.184ZM467.594 214.578C466.227 214.578 465.462 213.539 465.462 211.932C465.462 210.326 466.227 209.287 467.594 209.287C468.955 209.287 469.782 210.326 469.782 211.932C469.782 213.539 468.962 214.578 467.594 214.578ZM467.649 218.556C469.659 218.556 470.93 217.504 470.93 215.856V208.357H469.809V209.526H469.7C469.276 208.733 468.367 208.227 467.335 208.227C465.441 208.227 464.245 209.724 464.245 211.932C464.245 214.14 465.427 215.617 467.335 215.617C468.346 215.617 469.18 215.159 469.645 214.345H469.755V215.795C469.755 216.882 468.969 217.531 467.649 217.531C466.59 217.531 465.933 217.141 465.803 216.54H464.559C464.737 217.757 465.872 218.556 467.649 218.556ZM473.173 215.726H474.348V208.357H473.173V215.726ZM473.76 206.86C474.212 206.86 474.581 206.491 474.581 206.04C474.581 205.589 474.212 205.219 473.76 205.219C473.309 205.219 472.94 205.589 472.94 206.04C472.94 206.491 473.309 206.86 473.76 206.86ZM476.591 215.726H477.766V211.365C477.766 210.073 478.525 209.287 479.701 209.287C480.877 209.287 481.437 209.916 481.437 211.242V215.726H482.613V210.955C482.613 209.205 481.69 208.227 480.036 208.227C478.908 208.227 478.19 208.706 477.821 209.519H477.712V208.357H476.591V215.726ZM487.036 214.824C486.181 214.824 485.546 214.386 485.546 213.635C485.546 212.896 486.038 212.507 487.159 212.431L489.141 212.302V212.978C489.141 214.031 488.246 214.824 487.036 214.824ZM486.817 215.856C487.802 215.856 488.608 215.426 489.087 214.639H489.196V215.726H490.317V210.681C490.317 209.15 489.312 208.227 487.514 208.227C485.942 208.227 484.78 209.007 484.623 210.189H485.812C485.976 209.608 486.592 209.273 487.473 209.273C488.574 209.273 489.141 209.772 489.141 210.681V211.351L487.015 211.481C485.3 211.584 484.329 212.343 484.329 213.662C484.329 215.009 485.388 215.856 486.817 215.856Z" fill="black" stroke-opacity="0" fill-opacity="0.65"/>
<path d="M229.607 184.34H231.365L231.248 174.926H229.725L229.607 184.34ZM230.486 172.357C231.121 172.357 231.6 171.869 231.6 171.244C231.6 170.609 231.121 170.131 230.486 170.131C229.861 170.131 229.373 170.609 229.373 171.244C229.373 171.869 229.861 172.357 230.486 172.357ZM240.467 166.674C236.473 166.674 233.973 169.486 233.973 173.959C233.973 178.432 236.473 181.234 240.467 181.234C244.461 181.234 246.961 178.432 246.961 173.959C246.961 169.486 244.461 166.674 240.467 166.674ZM240.467 168.295C243.348 168.295 245.154 170.482 245.154 173.959C245.154 177.426 243.348 179.613 240.467 179.613C237.586 179.613 235.779 177.426 235.779 173.959C235.779 170.482 237.586 168.295 240.467 168.295ZM253.094 181.176C255.896 181.176 257.791 179.154 257.791 175.922C257.791 172.68 255.896 170.668 253.094 170.668C250.281 170.668 248.387 172.68 248.387 175.922C248.387 179.154 250.281 181.176 253.094 181.176ZM253.094 179.682C251.297 179.682 250.115 178.314 250.115 175.922C250.115 173.529 251.297 172.162 253.094 172.162C254.891 172.162 256.062 173.529 256.062 175.922C256.062 178.314 254.891 179.682 253.094 179.682ZM264.441 170.668C262.967 170.668 261.785 171.42 261.16 172.562H261.121V170.844H259.51V184.389H261.209V179.35H261.248C261.854 180.463 263.025 181.176 264.48 181.176C267.039 181.176 268.787 179.105 268.787 175.922C268.787 172.738 267.029 170.668 264.441 170.668ZM264.109 179.682C262.371 179.682 261.199 178.188 261.199 175.922C261.199 173.666 262.371 172.162 264.109 172.162C265.916 172.162 267.049 173.627 267.049 175.922C267.049 178.227 265.916 179.682 264.109 179.682ZM270.33 173.646C270.33 175.033 271.209 175.951 272.996 176.41L274.783 176.869C275.926 177.172 276.346 177.562 276.346 178.285C276.346 179.203 275.496 179.789 274.119 179.789C272.742 179.789 271.941 179.223 271.756 178.168H270.057C270.232 179.965 271.785 181.176 274.012 181.176C276.385 181.176 278.055 179.926 278.055 178.158C278.055 176.664 277.312 175.922 275.262 175.404L273.689 175.023C272.537 174.73 272 174.262 272 173.559C272 172.67 272.82 172.055 274.061 172.055C275.311 172.055 276.102 172.66 276.219 173.637H277.84C277.762 171.918 276.219 170.668 274.119 170.668C271.883 170.668 270.33 171.908 270.33 173.646ZM280.506 166.908L280.623 176.322H282.146L282.264 166.908H280.506ZM281.385 181.098C282.02 181.098 282.498 180.609 282.498 179.984C282.498 179.35 282.02 178.871 281.385 178.871C280.76 178.871 280.271 179.35 280.271 179.984C280.271 180.609 280.76 181.098 281.385 181.098ZM292.605 179.73C291.385 179.73 290.574 179.096 290.574 178.129C290.574 177.172 291.355 176.566 292.723 176.479L295.438 176.312V177.143C295.438 178.607 294.207 179.73 292.605 179.73ZM292.225 181.176C293.592 181.176 294.881 180.414 295.486 179.252H295.525V181H297.137V173.979C297.137 171.957 295.633 170.668 293.25 170.668C290.848 170.668 289.344 172.016 289.227 173.773H290.867C291.082 172.777 291.902 172.162 293.211 172.162C294.617 172.162 295.438 172.904 295.438 174.145V174.994L292.527 175.16C290.184 175.297 288.846 176.391 288.846 178.129C288.846 179.955 290.203 181.176 292.225 181.176ZM299.383 181H301.082V166.908H299.383V181ZM312.41 170.668C310.936 170.668 309.754 171.42 309.129 172.562H309.09V170.844H307.479V184.389H309.178V179.35H309.217C309.822 180.463 310.994 181.176 312.449 181.176C315.008 181.176 316.756 179.105 316.756 175.922C316.756 172.738 314.998 170.668 312.41 170.668ZM312.078 179.682C310.34 179.682 309.168 178.188 309.168 175.922C309.168 173.666 310.34 172.162 312.078 172.162C313.885 172.162 315.018 173.627 315.018 175.922C315.018 178.227 313.885 179.682 312.078 179.682ZM321.824 179.73C320.604 179.73 319.793 179.096 319.793 178.129C319.793 177.172 320.574 176.566 321.941 176.479L324.656 176.312V177.143C324.656 178.607 323.426 179.73 321.824 179.73ZM321.443 181.176C322.811 181.176 324.1 180.414 324.705 179.252H324.744V181H326.355V173.979C326.355 171.957 324.852 170.668 322.469 170.668C320.066 170.668 318.562 172.016 318.445 173.773H320.086C320.301 172.777 321.121 172.162 322.43 172.162C323.836 172.162 324.656 172.904 324.656 174.145V174.994L321.746 175.16C319.402 175.297 318.064 176.391 318.064 178.129C318.064 179.955 319.422 181.176 321.443 181.176ZM328.514 181H330.213V174.672C330.213 173.236 331.072 172.289 332.391 172.289C332.801 172.289 333.162 172.338 333.299 172.387V170.736C333.162 170.717 332.908 170.668 332.615 170.668C331.424 170.668 330.486 171.381 330.154 172.504H330.115V170.844H328.514V181ZM338.27 172.143C339.871 172.143 340.936 173.354 340.975 175.053H335.457C335.564 173.363 336.678 172.143 338.27 172.143ZM340.936 178.09C340.652 179.047 339.705 179.701 338.416 179.701C336.59 179.701 335.447 178.422 335.447 176.479V176.381H342.732V175.736C342.732 172.66 341.043 170.668 338.299 170.668C335.496 170.668 333.699 172.807 333.699 175.961C333.699 179.154 335.467 181.176 338.377 181.176C340.594 181.176 342.312 179.867 342.605 178.09H340.936ZM352.889 174.174C352.674 172.348 351.16 170.668 348.621 170.668C345.818 170.668 343.953 172.719 343.953 175.922C343.953 179.193 345.828 181.176 348.641 181.176C350.945 181.176 352.645 179.75 352.908 177.729H351.238C350.945 178.949 350.037 179.682 348.65 179.682C346.893 179.682 345.682 178.285 345.682 175.922C345.682 173.617 346.873 172.162 348.631 172.162C350.125 172.162 350.984 173.07 351.229 174.174H352.889ZM358.543 172.143C360.145 172.143 361.209 173.354 361.248 175.053H355.73C355.838 173.363 356.951 172.143 358.543 172.143ZM361.209 178.09C360.926 179.047 359.979 179.701 358.689 179.701C356.863 179.701 355.721 178.422 355.721 176.479V176.381H363.006V175.736C363.006 172.66 361.316 170.668 358.572 170.668C355.77 170.668 353.973 172.807 353.973 175.961C353.973 179.154 355.74 181.176 358.65 181.176C360.867 181.176 362.586 179.867 362.879 178.09H361.209ZM364.725 181H366.424V174.672C366.424 173.236 367.283 172.289 368.602 172.289C369.012 172.289 369.373 172.338 369.51 172.387V170.736C369.373 170.717 369.119 170.668 368.826 170.668C367.635 170.668 366.697 171.381 366.365 172.504H366.326V170.844H364.725V181ZM378.348 179.73C377.127 179.73 376.316 179.096 376.316 178.129C376.316 177.172 377.098 176.566 378.465 176.479L381.18 176.312V177.143C381.18 178.607 379.949 179.73 378.348 179.73ZM377.967 181.176C379.334 181.176 380.623 180.414 381.229 179.252H381.268V181H382.879V173.979C382.879 171.957 381.375 170.668 378.992 170.668C376.59 170.668 375.086 172.016 374.969 173.773H376.609C376.824 172.777 377.645 172.162 378.953 172.162C380.359 172.162 381.18 172.904 381.18 174.145V174.994L378.27 175.16C375.926 175.297 374.588 176.391 374.588 178.129C374.588 179.955 375.945 181.176 377.967 181.176ZM385.125 181H386.824V166.908H385.125V181ZM393.25 179.584C391.502 179.584 390.359 178.158 390.359 175.883C390.359 173.607 391.502 172.162 393.25 172.162C395.018 172.162 396.199 173.646 396.199 175.883C396.199 178.119 395.018 179.584 393.25 179.584ZM393.309 184.828C396.111 184.828 397.898 183.217 397.898 180.795V170.844H396.277V172.553H396.248C395.574 171.371 394.383 170.668 392.947 170.668C390.32 170.668 388.621 172.699 388.621 175.883C388.621 179.037 390.32 181.078 392.908 181.078C394.334 181.078 395.535 180.355 396.16 179.252H396.199V180.854C396.199 182.367 395.135 183.383 393.377 183.383C392.107 183.383 391.102 182.768 390.77 181.84H389.021C389.305 183.568 391.072 184.828 393.309 184.828ZM404.324 181.176C407.127 181.176 409.021 179.154 409.021 175.922C409.021 172.68 407.127 170.668 404.324 170.668C401.512 170.668 399.617 172.68 399.617 175.922C399.617 179.154 401.512 181.176 404.324 181.176ZM404.324 179.682C402.527 179.682 401.346 178.314 401.346 175.922C401.346 173.529 402.527 172.162 404.324 172.162C406.121 172.162 407.293 173.529 407.293 175.922C407.293 178.314 406.121 179.682 404.324 179.682ZM414.666 173.646C414.666 175.033 415.545 175.951 417.332 176.41L419.119 176.869C420.262 177.172 420.682 177.562 420.682 178.285C420.682 179.203 419.832 179.789 418.455 179.789C417.078 179.789 416.277 179.223 416.092 178.168H414.393C414.568 179.965 416.121 181.176 418.348 181.176C420.721 181.176 422.391 179.926 422.391 178.158C422.391 176.664 421.648 175.922 419.598 175.404L418.025 175.023C416.873 174.73 416.336 174.262 416.336 173.559C416.336 172.67 417.156 172.055 418.396 172.055C419.646 172.055 420.438 172.66 420.555 173.637H422.176C422.098 171.918 420.555 170.668 418.455 170.668C416.219 170.668 414.666 171.908 414.666 173.646ZM427.508 179.73C426.287 179.73 425.477 179.096 425.477 178.129C425.477 177.172 426.258 176.566 427.625 176.479L430.34 176.312V177.143C430.34 178.607 429.109 179.73 427.508 179.73ZM427.127 181.176C428.494 181.176 429.783 180.414 430.389 179.252H430.428V181H432.039V173.979C432.039 171.957 430.535 170.668 428.152 170.668C425.75 170.668 424.246 172.016 424.129 173.773H425.77C425.984 172.777 426.805 172.162 428.113 172.162C429.52 172.162 430.34 172.904 430.34 174.145V174.994L427.43 175.16C425.086 175.297 423.748 176.391 423.748 178.129C423.748 179.955 425.105 181.176 427.127 181.176ZM434.285 181H435.984V166.908H434.285V181ZM438.367 181H440.066V170.844H438.367V181ZM439.217 169.135C439.803 169.135 440.281 168.656 440.281 168.08C440.281 167.494 439.803 167.025 439.217 167.025C438.641 167.025 438.162 167.494 438.162 168.08C438.162 168.656 438.641 169.135 439.217 169.135ZM446.57 181.176C449.373 181.176 451.268 179.154 451.268 175.922C451.268 172.68 449.373 170.668 446.57 170.668C443.758 170.668 441.863 172.68 441.863 175.922C441.863 179.154 443.758 181.176 446.57 181.176ZM446.57 179.682C444.773 179.682 443.592 178.314 443.592 175.922C443.592 173.529 444.773 172.162 446.57 172.162C448.367 172.162 449.539 173.529 449.539 175.922C449.539 178.314 448.367 179.682 446.57 179.682ZM447.342 169.379L449.744 166.449H447.908L445.857 169.379H447.342ZM457.088 181H458.787V174.633C458.787 173.227 459.764 172.172 461.111 172.172C462.371 172.172 463.191 172.973 463.191 174.193V181H464.891V174.545C464.891 173.168 465.838 172.172 467.186 172.172C468.523 172.172 469.295 172.992 469.295 174.379V181H470.994V173.988C470.994 171.977 469.695 170.668 467.684 170.668C466.258 170.668 465.066 171.391 464.5 172.602H464.461C464.021 171.371 462.996 170.668 461.609 170.668C460.242 170.668 459.207 171.391 458.729 172.465H458.689V170.844H457.088V181ZM476.512 179.73C475.291 179.73 474.48 179.096 474.48 178.129C474.48 177.172 475.262 176.566 476.629 176.479L479.344 176.312V177.143C479.344 178.607 478.113 179.73 476.512 179.73ZM476.131 181.176C477.498 181.176 478.787 180.414 479.393 179.252H479.432V181H481.043V173.979C481.043 171.957 479.539 170.668 477.156 170.668C474.754 170.668 473.25 172.016 473.133 173.773H474.773C474.988 172.777 475.809 172.162 477.117 172.162C478.523 172.162 479.344 172.904 479.344 174.145V174.994L476.434 175.16C474.09 175.297 472.752 176.391 472.752 178.129C472.752 179.955 474.109 181.176 476.131 181.176ZM483.289 181H484.988V166.908H483.289V181Z" fill="black" stroke="transparent" fill-opacity="0.85"/>
<path fill-rule="evenodd" clip-rule="evenodd" d="M369.972 28.5834C375.234 28.5834 379.5 32.8491 379.5 38.1112C379.5 43.3732 375.234 47.6389 369.972 47.6389H457.083C462.345 47.6389 466.611 51.9047 466.611 57.1667C466.611 62.4288 462.345 66.6945 457.083 66.6945H487.028C492.29 66.6945 496.556 70.9602 496.556 76.2223C496.556 81.4843 492.29 85.75 487.028 85.75H461.167C455.905 85.75 451.639 90.0158 451.639 95.2778C451.639 100.54 455.905 104.806 461.167 104.806H469.333C474.595 104.806 478.861 109.071 478.861 114.333C478.861 119.595 474.595 123.861 469.333 123.861H270.611C265.349 123.861 261.083 119.595 261.083 114.333C261.083 109.071 265.349 104.806 270.611 104.806H217.528C212.266 104.806 208 100.54 208 95.2778C208 90.0158 212.266 85.75 217.528 85.75H271.972C277.234 85.75 281.5 81.4843 281.5 76.2223C281.5 70.9602 277.234 66.6945 271.972 66.6945H237.944C232.682 66.6945 228.417 62.4288 228.417 57.1667C228.417 51.9047 232.682 47.6389 237.944 47.6389H292.389C287.127 47.6389 282.861 43.3732 282.861 38.1112C282.861 32.8491 287.127 28.5834 292.389 28.5834H369.972ZM492.472 104.806C497.734 104.806 502 109.071 502 114.333C502 119.595 497.734 123.861 492.472 123.861C487.21 123.861 482.944 119.595 482.944 114.333C482.944 109.071 487.21 104.806 492.472 104.806Z" fill="#EBEDF0" stroke-opacity="0"/>
<path fill-rule="evenodd" clip-rule="evenodd" d="M310.083 132.028C293.545 132.028 280.139 118.926 280.139 102.764C280.139 86.6019 293.545 73.5 310.083 73.5C310.786 73.5 311.484 73.5237 312.175 73.5703C311.695 70.8973 311.444 68.1446 311.444 65.3333C311.444 39.7748 332.163 19.0555 357.722 19.0555C378.126 19.0555 395.447 32.261 401.602 50.5918C403.061 50.4393 404.542 50.3611 406.041 50.3611C428.969 50.3611 447.555 68.6428 447.555 91.1944C447.555 112.619 430.78 130.296 409.444 131.998V132.028H332.552H310.083ZM326.411 132.028H316.931H326.411Z" fill="white"/>
<path d="M326.411 132.028H316.931M310.083 132.028C293.545 132.028 280.139 118.926 280.139 102.764C280.139 86.6019 293.545 73.5 310.083 73.5C310.786 73.5 311.484 73.5237 312.175 73.5703C311.695 70.8973 311.444 68.1446 311.444 65.3333C311.444 39.7748 332.163 19.0555 357.722 19.0555C378.126 19.0555 395.447 32.261 401.602 50.5918C403.061 50.4393 404.542 50.3611 406.041 50.3611C428.969 50.3611 447.555 68.6428 447.555 91.1944C447.555 112.619 430.78 130.296 409.444 131.998V132.028H332.552H310.083Z" stroke-width="3.40278" stroke-linecap="round" fill="white"/>
<path d="M371.334 32.6666C380.193 35.0112 387.188 41.9397 389.627 50.7601" stroke-width="3.40278" stroke-linecap="round" fill="none"/>
<path d="M399.917 9.52775C402.172 9.52775 404 7.69958 404 5.44442C404 3.18925 402.172 1.36108 399.917 1.36108C397.662 1.36108 395.833 3.18925 395.833 5.44442C395.833 7.69958 397.662 9.52775 399.917 9.52775Z" stroke-width="2.72222"/>
<path d="M442.111 31.3056C444.366 31.3056 446.194 29.4774 446.194 27.2222C446.194 24.9671 444.366 23.1389 442.111 23.1389C439.856 23.1389 438.028 24.9671 438.028 27.2222C438.028 29.4774 439.856 31.3056 442.111 31.3056Z" />
<path d="M410.475 20.0863L421.852 31.4628M422.025 20.0863L410.648 31.4628L422.025 20.0863Z" stroke-width="3.40278" stroke-linecap="round" stroke-linejoin="round"/>
<path d="M282.05 44.3671L290.216 52.5337M290.216 44.3671L282.05 52.5337L290.216 44.3671Z" stroke-width="3.40278" stroke-linecap="round" stroke-linejoin="round"/>
<path d="M300.556 35.3888C302.811 35.3888 304.639 33.5607 304.639 31.3055C304.639 29.0503 302.811 27.2222 300.556 27.2222C298.3 27.2222 296.472 29.0503 296.472 31.3055C296.472 33.5607 298.3 35.3888 300.556 35.3888Z" />
<path d="M352.278 84.3888C354.533 84.3888 356.361 82.5607 356.361 80.3055C356.361 78.0503 354.533 76.2222 352.278 76.2222C350.023 76.2222 348.194 78.0503 348.194 80.3055C348.194 82.5607 350.023 84.3888 352.278 84.3888Z" />
<path d="M376.778 84.3888C379.033 84.3888 380.861 82.5607 380.861 80.3055C380.861 78.0503 379.033 76.2222 376.778 76.2222C374.523 76.2222 372.694 78.0503 372.694 80.3055C372.694 82.5607 374.523 84.3888 376.778 84.3888Z" />
<path fill-rule="evenodd" clip-rule="evenodd" d="M368.611 92.5555C368.611 90.3003 366.783 88.4722 364.528 88.4722C362.273 88.4722 360.444 90.3003 360.444 92.5555" fill="white"/>
<path d="M368.611 92.5555C368.611 90.3003 366.783 88.4722 364.528 88.4722C362.273 88.4722 360.444 90.3003 360.444 92.5555" stroke-width="3.40278" stroke-linecap="round"/>
</svg>
