<svg width="1440" height="900" viewBox="0 0 1440 900" fill="none" xmlns="http://www.w3.org/2000/svg">
<path d="M584.437 585.727V575.863H583.207V585.727H584.437ZM586.802 585.727H587.978V581.366C587.978 580.074 588.737 579.288 589.913 579.288C591.089 579.288 591.649 579.917 591.649 581.243V585.727H592.825V580.956C592.825 579.206 591.902 578.228 590.248 578.228C589.12 578.228 588.402 578.707 588.033 579.52H587.924V578.358H586.802V585.727ZM595.47 576.451V578.358H594.281V579.342H595.47V583.813C595.47 585.221 596.079 585.782 597.596 585.782C597.829 585.782 598.054 585.754 598.287 585.713V584.722C598.068 584.743 597.952 584.75 597.74 584.75C596.974 584.75 596.646 584.38 596.646 583.512V579.342H598.287V578.358H596.646V576.451H595.47ZM602.894 579.267C604.063 579.267 604.843 580.128 604.87 581.434H600.809C600.898 580.128 601.718 579.267 602.894 579.267ZM604.836 583.82C604.528 584.469 603.885 584.818 602.935 584.818C601.684 584.818 600.871 583.895 600.809 582.439V582.384H606.107V581.933C606.107 579.643 604.897 578.228 602.908 578.228C600.885 578.228 599.586 579.732 599.586 582.049C599.586 584.38 600.864 585.857 602.908 585.857C604.521 585.857 605.656 585.084 606.011 583.82H604.836ZM607.953 585.727H609.129V581.366C609.129 580.074 609.887 579.288 611.063 579.288C612.239 579.288 612.8 579.917 612.8 581.243V585.727H613.975V580.956C613.975 579.206 613.052 578.228 611.398 578.228C610.27 578.228 609.552 578.707 609.183 579.52H609.074V578.358H607.953V585.727ZM616.621 576.451V578.358H615.431V579.342H616.621V583.813C616.621 585.221 617.229 585.782 618.747 585.782C618.979 585.782 619.205 585.754 619.437 585.713V584.722C619.218 584.743 619.102 584.75 618.89 584.75C618.125 584.75 617.797 584.38 617.797 583.512V579.342H619.437V578.358H617.797V576.451H616.621ZM623.484 584.825C622.63 584.825 621.994 584.387 621.994 583.635C621.994 582.897 622.486 582.507 623.607 582.432L625.59 582.302V582.979C625.59 584.032 624.694 584.825 623.484 584.825ZM623.265 585.857C624.25 585.857 625.056 585.426 625.535 584.64H625.644V585.727H626.765V580.682C626.765 579.151 625.76 578.228 623.963 578.228C622.39 578.228 621.228 579.007 621.071 580.19H622.26C622.425 579.609 623.04 579.274 623.922 579.274C625.022 579.274 625.59 579.773 625.59 580.682V581.352L623.464 581.482C621.748 581.584 620.777 582.343 620.777 583.663C620.777 585.009 621.837 585.857 623.265 585.857ZM632.89 585.727H634.066V581.161C634.066 580.122 634.88 579.37 636.001 579.37C636.233 579.37 636.657 579.411 636.753 579.438V578.262C636.602 578.242 636.356 578.228 636.165 578.228C635.187 578.228 634.34 578.734 634.121 579.452H634.011V578.358H632.89V585.727ZM640.957 579.267C642.126 579.267 642.905 580.128 642.932 581.434H638.872C638.961 580.128 639.781 579.267 640.957 579.267ZM642.898 583.82C642.591 584.469 641.948 584.818 640.998 584.818C639.747 584.818 638.933 583.895 638.872 582.439V582.384H644.17V581.933C644.17 579.643 642.96 578.228 640.97 578.228C638.947 578.228 637.648 579.732 637.648 582.049C637.648 584.38 638.926 585.857 640.97 585.857C642.584 585.857 643.718 585.084 644.074 583.82H642.898ZM652.113 580.614C651.908 579.301 650.814 578.228 649.023 578.228C646.959 578.228 645.646 579.718 645.646 582.015C645.646 584.36 646.966 585.857 649.03 585.857C650.801 585.857 651.901 584.859 652.113 583.505H650.924C650.705 584.339 650.014 584.797 649.023 584.797C647.711 584.797 646.863 583.717 646.863 582.015C646.863 580.347 647.697 579.288 649.023 579.288C650.083 579.288 650.732 579.882 650.924 580.614H652.113ZM656.119 584.825C655.264 584.825 654.629 584.387 654.629 583.635C654.629 582.897 655.121 582.507 656.242 582.432L658.224 582.302V582.979C658.224 584.032 657.329 584.825 656.119 584.825ZM655.9 585.857C656.885 585.857 657.691 585.426 658.17 584.64H658.279V585.727H659.4V580.682C659.4 579.151 658.395 578.228 656.597 578.228C655.025 578.228 653.863 579.007 653.706 580.19H654.895C655.059 579.609 655.675 579.274 656.556 579.274C657.657 579.274 658.224 579.773 658.224 580.682V581.352L656.098 581.482C654.383 581.584 653.412 582.343 653.412 583.663C653.412 585.009 654.471 585.857 655.9 585.857ZM661.574 585.727H662.75V581.161C662.75 580.122 663.563 579.37 664.684 579.37C664.917 579.37 665.341 579.411 665.436 579.438V578.262C665.286 578.242 665.04 578.228 664.848 578.228C663.871 578.228 663.023 578.734 662.804 579.452H662.695V578.358H661.574V585.727ZM669.681 584.579C668.314 584.579 667.549 583.54 667.549 581.933C667.549 580.327 668.314 579.288 669.681 579.288C671.042 579.288 671.869 580.327 671.869 581.933C671.869 583.54 671.049 584.579 669.681 584.579ZM669.736 588.557C671.746 588.557 673.017 587.504 673.017 585.857V578.358H671.896V579.527H671.787C671.363 578.734 670.454 578.228 669.422 578.228C667.528 578.228 666.332 579.725 666.332 581.933C666.332 584.141 667.514 585.618 669.422 585.618C670.433 585.618 671.267 585.16 671.732 584.346H671.842V585.795C671.842 586.882 671.055 587.532 669.736 587.532C668.676 587.532 668.02 587.142 667.89 586.541H666.646C666.824 587.757 667.959 588.557 669.736 588.557ZM677.502 584.825C676.647 584.825 676.011 584.387 676.011 583.635C676.011 582.897 676.504 582.507 677.625 582.432L679.607 582.302V582.979C679.607 584.032 678.712 584.825 677.502 584.825ZM677.283 585.857C678.267 585.857 679.074 585.426 679.552 584.64H679.662V585.727H680.783V580.682C680.783 579.151 679.778 578.228 677.98 578.228C676.408 578.228 675.246 579.007 675.089 580.19H676.278C676.442 579.609 677.057 579.274 677.939 579.274C679.04 579.274 679.607 579.773 679.607 580.682V581.352L677.481 581.482C675.765 581.584 674.795 582.343 674.795 583.663C674.795 585.009 675.854 585.857 677.283 585.857ZM682.957 585.727H684.133V581.366C684.133 580.074 684.891 579.288 686.067 579.288C687.243 579.288 687.803 579.917 687.803 581.243V585.727H688.979V580.956C688.979 579.206 688.056 578.228 686.402 578.228C685.274 578.228 684.556 578.707 684.187 579.52H684.078V578.358H682.957V585.727ZM693.86 585.857C694.879 585.857 695.754 585.372 696.218 584.551H696.328V585.727H697.449V575.432H696.273V579.52H696.171C695.754 578.713 694.885 578.228 693.86 578.228C691.987 578.228 690.763 579.732 690.763 582.042C690.763 584.36 691.973 585.857 693.86 585.857ZM694.134 579.288C695.467 579.288 696.301 580.354 696.301 582.042C696.301 583.745 695.473 584.797 694.134 584.797C692.787 584.797 691.98 583.765 691.98 582.042C691.98 580.327 692.794 579.288 694.134 579.288ZM702.76 585.857C704.859 585.857 706.158 584.408 706.158 582.042C706.158 579.67 704.859 578.228 702.76 578.228C700.662 578.228 699.363 579.67 699.363 582.042C699.363 584.408 700.662 585.857 702.76 585.857ZM702.76 584.797C701.366 584.797 700.58 583.786 700.58 582.042C700.58 580.292 701.366 579.288 702.76 579.288C704.155 579.288 704.941 580.292 704.941 582.042C704.941 583.786 704.155 584.797 702.76 584.797ZM711.955 585.727H713.131V581.366C713.131 580.074 713.889 579.288 715.065 579.288C716.241 579.288 716.801 579.917 716.801 581.243V585.727H717.977V580.956C717.977 579.206 717.054 578.228 715.4 578.228C714.272 578.228 713.554 578.707 713.185 579.52H713.076V578.358H711.955V585.727ZM726.092 578.358H724.916V582.719C724.916 584.011 724.205 584.784 722.906 584.784C721.73 584.784 721.238 584.168 721.238 582.842V578.358H720.062V583.129C720.062 584.873 720.924 585.857 722.578 585.857C723.706 585.857 724.492 585.392 724.861 584.572H724.97V585.727H726.092V578.358ZM731.246 579.267C732.415 579.267 733.194 580.128 733.221 581.434H729.161C729.25 580.128 730.07 579.267 731.246 579.267ZM733.187 583.82C732.88 584.469 732.237 584.818 731.287 584.818C730.036 584.818 729.222 583.895 729.161 582.439V582.384H734.459V581.933C734.459 579.643 733.249 578.228 731.26 578.228C729.236 578.228 727.937 579.732 727.937 582.049C727.937 584.38 729.216 585.857 731.26 585.857C732.873 585.857 734.008 585.084 734.363 583.82H733.187ZM742.183 578.358H740.926L738.909 584.428H738.8L736.783 578.358H735.525L738.253 585.727H739.456L742.183 578.358ZM745.752 584.825C744.897 584.825 744.261 584.387 744.261 583.635C744.261 582.897 744.754 582.507 745.875 582.432L747.857 582.302V582.979C747.857 584.032 746.962 584.825 745.752 584.825ZM745.533 585.857C746.517 585.857 747.324 585.426 747.802 584.64H747.912V585.727H749.033V580.682C749.033 579.151 748.028 578.228 746.23 578.228C744.658 578.228 743.496 579.007 743.339 580.19H744.528C744.692 579.609 745.307 579.274 746.189 579.274C747.29 579.274 747.857 579.773 747.857 580.682V581.352L745.731 581.482C744.015 581.584 743.045 582.343 743.045 583.663C743.045 585.009 744.104 585.857 745.533 585.857ZM751.207 585.727H752.383V581.161C752.383 580.122 753.128 579.288 754.092 579.288C755.021 579.288 755.63 579.848 755.63 580.723V585.727H756.805V580.99C756.805 580.053 757.489 579.288 758.514 579.288C759.553 579.288 760.066 579.821 760.066 580.908V585.727H761.242V580.634C761.242 579.089 760.401 578.228 758.897 578.228C757.879 578.228 757.038 578.741 756.641 579.52H756.532C756.19 578.754 755.493 578.228 754.495 578.228C753.51 578.228 752.772 578.7 752.437 579.52H752.328V578.358H751.207V585.727ZM766.328 579.267C767.497 579.267 768.276 580.128 768.303 581.434H764.243C764.332 580.128 765.152 579.267 766.328 579.267ZM768.269 583.82C767.962 584.469 767.319 584.818 766.369 584.818C765.118 584.818 764.304 583.895 764.243 582.439V582.384H769.541V581.933C769.541 579.643 768.331 578.228 766.342 578.228C764.318 578.228 763.019 579.732 763.019 582.049C763.019 584.38 764.298 585.857 766.342 585.857C767.955 585.857 769.09 585.084 769.445 583.82H768.269ZM771.386 585.727H772.562V581.366C772.562 580.074 773.321 579.288 774.497 579.288C775.673 579.288 776.233 579.917 776.233 581.243V585.727H777.409V580.956C777.409 579.206 776.486 578.228 774.832 578.228C773.704 578.228 772.986 578.707 772.617 579.52H772.508V578.358H771.386V585.727ZM780.054 576.451V578.358H778.865V579.342H780.054V583.813C780.054 585.221 780.663 585.782 782.18 585.782C782.413 585.782 782.638 585.754 782.871 585.713V584.722C782.652 584.743 782.536 584.75 782.324 584.75C781.558 584.75 781.23 584.38 781.23 583.512V579.342H782.871V578.358H781.23V576.451H780.054ZM787.478 579.267C788.647 579.267 789.427 580.128 789.454 581.434H785.393C785.482 580.128 786.302 579.267 787.478 579.267ZM789.42 583.82C789.112 584.469 788.469 584.818 787.519 584.818C786.268 584.818 785.455 583.895 785.393 582.439V582.384H790.691V581.933C790.691 579.643 789.481 578.228 787.492 578.228C785.469 578.228 784.17 579.732 784.17 582.049C784.17 584.38 785.448 585.857 787.492 585.857C789.105 585.857 790.24 585.084 790.595 583.82H789.42ZM796.556 585.727H797.732V575.432H796.556V585.727ZM802.285 584.825C801.43 584.825 800.795 584.387 800.795 583.635C800.795 582.897 801.287 582.507 802.408 582.432L804.39 582.302V582.979C804.39 584.032 803.495 584.825 802.285 584.825ZM802.066 585.857C803.051 585.857 803.857 585.426 804.336 584.64H804.445V585.727H805.566V580.682C805.566 579.151 804.561 578.228 802.763 578.228C801.191 578.228 800.029 579.007 799.872 580.19H801.061C801.225 579.609 801.841 579.274 802.722 579.274C803.823 579.274 804.39 579.773 804.39 580.682V581.352L802.264 581.482C800.549 581.584 799.578 582.343 799.578 583.663C799.578 585.009 800.637 585.857 802.066 585.857ZM815.28 578.228C814.275 578.228 813.393 578.741 812.922 579.588H812.812V578.358H811.691V588.188H812.867V584.62H812.976C813.38 585.399 814.227 585.857 815.28 585.857C817.153 585.857 818.377 584.346 818.377 582.042C818.377 579.725 817.16 578.228 815.28 578.228ZM815 584.797C813.674 584.797 812.833 583.731 812.833 582.042C812.833 580.347 813.674 579.288 815.007 579.288C816.353 579.288 817.16 580.32 817.16 582.042C817.16 583.765 816.353 584.797 815 584.797ZM822.492 584.825C821.637 584.825 821.002 584.387 821.002 583.635C821.002 582.897 821.494 582.507 822.615 582.432L824.597 582.302V582.979C824.597 584.032 823.702 584.825 822.492 584.825ZM822.273 585.857C823.258 585.857 824.064 585.426 824.543 584.64H824.652V585.727H825.773V580.682C825.773 579.151 824.768 578.228 822.97 578.228C821.398 578.228 820.236 579.007 820.079 580.19H821.268C821.432 579.609 822.048 579.274 822.929 579.274C824.03 579.274 824.597 579.773 824.597 580.682V581.352L822.471 581.482C820.756 581.584 819.785 582.343 819.785 583.663C819.785 585.009 820.844 585.857 822.273 585.857ZM823.517 577.093L825.418 574.783H823.914L822.191 577.093H823.517ZM830.927 584.579C829.56 584.579 828.795 583.54 828.795 581.933C828.795 580.327 829.56 579.288 830.927 579.288C832.288 579.288 833.115 580.327 833.115 581.933C833.115 583.54 832.295 584.579 830.927 584.579ZM830.982 588.557C832.992 588.557 834.263 587.504 834.263 585.857V578.358H833.142V579.527H833.033C832.609 578.734 831.7 578.228 830.668 578.228C828.774 578.228 827.578 579.725 827.578 581.933C827.578 584.141 828.76 585.618 830.668 585.618C831.679 585.618 832.513 585.16 832.978 584.346H833.088V585.795C833.088 586.882 832.302 587.532 830.982 587.532C829.923 587.532 829.266 587.142 829.136 586.541H827.892C828.07 587.757 829.205 588.557 830.982 588.557ZM836.506 585.727H837.681V578.358H836.506V585.727ZM837.094 576.861C837.545 576.861 837.914 576.492 837.914 576.041C837.914 575.589 837.545 575.22 837.094 575.22C836.642 575.22 836.273 575.589 836.273 576.041C836.273 576.492 836.642 576.861 837.094 576.861ZM839.924 585.727H841.099V581.366C841.099 580.074 841.858 579.288 843.034 579.288C844.21 579.288 844.77 579.917 844.77 581.243V585.727H845.946V580.956C845.946 579.206 845.023 578.228 843.369 578.228C842.241 578.228 841.523 578.707 841.154 579.52H841.045V578.358H839.924V585.727ZM850.369 584.825C849.514 584.825 848.879 584.387 848.879 583.635C848.879 582.897 849.371 582.507 850.492 582.432L852.474 582.302V582.979C852.474 584.032 851.579 584.825 850.369 584.825ZM850.15 585.857C851.135 585.857 851.941 585.426 852.42 584.64H852.529V585.727H853.65V580.682C853.65 579.151 852.645 578.228 850.847 578.228C849.275 578.228 848.113 579.007 847.956 580.19H849.145C849.309 579.609 849.925 579.274 850.806 579.274C851.907 579.274 852.474 579.773 852.474 580.682V581.352L850.348 581.482C848.633 581.584 847.662 582.343 847.662 583.663C847.662 585.009 848.721 585.857 850.15 585.857Z" stroke="none" fill="black" fill-opacity="0.65"/>
<path d="M641.431 551.274V540.249H641.519L649.234 551.274H650.943V537.183H649.205V548.247H649.117L641.402 537.183H639.693V551.274H641.431ZM657.623 551.45C660.425 551.45 662.32 549.429 662.32 546.196C662.32 542.954 660.425 540.942 657.623 540.942C654.81 540.942 652.916 542.954 652.916 546.196C652.916 549.429 654.81 551.45 657.623 551.45ZM657.623 549.956C655.826 549.956 654.644 548.589 654.644 546.196C654.644 543.804 655.826 542.437 657.623 542.437C659.419 542.437 660.591 543.804 660.591 546.196C660.591 548.589 659.419 549.956 657.623 549.956ZM672.212 542.417C673.814 542.417 674.878 543.628 674.918 545.327H669.4C669.507 543.638 670.621 542.417 672.212 542.417ZM674.878 548.364C674.595 549.321 673.648 549.976 672.359 549.976C670.533 549.976 669.39 548.696 669.39 546.753V546.655H676.675V546.011C676.675 542.935 674.986 540.942 672.242 540.942C669.439 540.942 667.642 543.081 667.642 546.235C667.642 549.429 669.41 551.45 672.32 551.45C674.537 551.45 676.255 550.142 676.548 548.364H674.878ZM678.394 551.274H680.093V544.946C680.093 543.511 680.953 542.563 682.271 542.563C682.681 542.563 683.043 542.612 683.179 542.661V541.011C683.043 540.991 682.789 540.942 682.496 540.942C681.304 540.942 680.367 541.655 680.035 542.778H679.996V541.118H678.394V551.274ZM688.15 542.417C689.751 542.417 690.816 543.628 690.855 545.327H685.337C685.445 543.638 686.558 542.417 688.15 542.417ZM690.816 548.364C690.533 549.321 689.585 549.976 688.296 549.976C686.47 549.976 685.328 548.696 685.328 546.753V546.655H692.613V546.011C692.613 542.935 690.923 540.942 688.179 540.942C685.376 540.942 683.58 543.081 683.58 546.235C683.58 549.429 685.347 551.45 688.257 551.45C690.474 551.45 692.193 550.142 692.486 548.364H690.816ZM694.156 543.921C694.156 545.308 695.035 546.226 696.822 546.685L698.609 547.144C699.751 547.446 700.171 547.837 700.171 548.56C700.171 549.478 699.322 550.063 697.945 550.063C696.568 550.063 695.767 549.497 695.582 548.442H693.882C694.058 550.239 695.611 551.45 697.837 551.45C700.21 551.45 701.88 550.2 701.88 548.433C701.88 546.938 701.138 546.196 699.087 545.679L697.515 545.298C696.363 545.005 695.826 544.536 695.826 543.833C695.826 542.944 696.646 542.329 697.886 542.329C699.136 542.329 699.927 542.935 700.044 543.911H701.666C701.587 542.192 700.044 540.942 697.945 540.942C695.709 540.942 694.156 542.183 694.156 543.921ZM708.296 538.667V541.118H706.783V542.515H708.296V548.638C708.296 550.591 709.019 551.353 710.884 551.353C711.285 551.353 711.753 551.323 711.959 551.274V549.849C711.841 549.868 711.451 549.897 711.255 549.897C710.386 549.897 709.996 549.478 709.996 548.55V542.515H711.968V541.118H709.996V538.667H708.296ZM722.125 541.118H720.425V547.085C720.425 548.813 719.429 549.946 717.779 549.946C716.207 549.946 715.435 549.058 715.435 547.407V541.118H713.736V547.71C713.736 550.015 715.035 551.45 717.251 551.45C718.814 551.45 719.869 550.796 720.474 549.624H720.513V551.274H722.125V541.118ZM718.697 539.653L721.099 536.724H719.263L717.212 539.653H718.697ZM725.494 554.077L726.832 549.106H725.025L724.078 554.077H725.494ZM736.607 542.417C738.209 542.417 739.273 543.628 739.312 545.327H733.794C733.902 543.638 735.015 542.417 736.607 542.417ZM739.273 548.364C738.99 549.321 738.043 549.976 736.753 549.976C734.927 549.976 733.785 548.696 733.785 546.753V546.655H741.07V546.011C741.07 542.935 739.38 540.942 736.636 540.942C733.834 540.942 732.037 543.081 732.037 546.235C732.037 549.429 733.804 551.45 736.714 551.45C738.931 551.45 740.65 550.142 740.943 548.364H739.273ZM742.613 543.921C742.613 545.308 743.492 546.226 745.279 546.685L747.066 547.144C748.209 547.446 748.628 547.837 748.628 548.56C748.628 549.478 747.779 550.063 746.402 550.063C745.025 550.063 744.224 549.497 744.039 548.442H742.339C742.515 550.239 744.068 551.45 746.294 551.45C748.668 551.45 750.337 550.2 750.337 548.433C750.337 546.938 749.595 546.196 747.544 545.679L745.972 545.298C744.82 545.005 744.283 544.536 744.283 543.833C744.283 542.944 745.103 542.329 746.343 542.329C747.593 542.329 748.384 542.935 748.501 543.911H750.123C750.044 542.192 748.501 540.942 746.402 540.942C744.166 540.942 742.613 542.183 742.613 543.921ZM760.279 542.417C761.88 542.417 762.945 543.628 762.984 545.327H757.466C757.574 543.638 758.687 542.417 760.279 542.417ZM762.945 548.364C762.662 549.321 761.714 549.976 760.425 549.976C758.599 549.976 757.457 548.696 757.457 546.753V546.655H764.742V546.011C764.742 542.935 763.052 540.942 760.308 540.942C757.505 540.942 755.709 543.081 755.709 546.235C755.709 549.429 757.476 551.45 760.386 551.45C762.603 551.45 764.322 550.142 764.615 548.364H762.945ZM766.548 551.274H768.248V537.183H766.548V551.274ZM774.732 551.274H776.431V537.183H774.732V551.274ZM778.814 551.274H780.513V541.118H778.814V551.274ZM779.664 539.409C780.25 539.409 780.728 538.931 780.728 538.354C780.728 537.769 780.25 537.3 779.664 537.3C779.087 537.3 778.609 537.769 778.609 538.354C778.609 538.931 779.087 539.409 779.664 539.409ZM782.808 551.274H784.507V545.298C784.507 543.579 785.552 542.446 787.154 542.446C788.716 542.446 789.488 543.345 789.488 544.985V551.274H791.187V544.683C791.187 542.378 789.898 540.942 787.671 540.942C786.099 540.942 785.015 541.646 784.449 542.739H784.41V541.118H782.808V551.274ZM795.142 545.63V537.183H793.443V551.274H795.142V547.446L796.089 546.548L799.859 551.274H801.832L797.291 545.503L801.695 541.118H799.634L795.142 545.63Z" stroke="none" fill="black" fill-opacity="0.85"/>
<path fill-rule="evenodd" clip-rule="evenodd" d="M846.473 363.636C852.839 363.636 858 368.765 858 375.091C858 381.417 852.839 386.546 846.473 386.546H780.605C786.971 386.546 792.132 391.674 792.132 398C792.132 404.326 786.971 409.455 780.605 409.455H816.832C823.198 409.455 828.359 414.583 828.359 420.909C828.359 427.235 823.198 432.364 816.832 432.364H800.079C792.052 432.364 785.545 437.492 785.545 443.818C785.545 448.036 788.838 451.854 795.425 455.273C801.791 455.273 806.952 460.401 806.952 466.727C806.952 473.054 801.791 478.182 795.425 478.182H658.749C652.382 478.182 647.222 473.054 647.222 466.727C647.222 460.401 652.382 455.273 658.749 455.273H594.527C588.161 455.273 583 450.144 583 443.818C583 437.492 588.161 432.364 594.527 432.364H660.395C666.761 432.364 671.922 427.235 671.922 420.909C671.922 414.583 666.761 409.455 660.395 409.455H619.228C612.861 409.455 607.701 404.326 607.701 398C607.701 391.674 612.861 386.546 619.228 386.546H685.096C678.73 386.546 673.569 381.417 673.569 375.091C673.569 368.765 678.73 363.636 685.096 363.636H846.473ZM846.473 409.455C852.839 409.455 858 414.583 858 420.909C858 427.235 852.839 432.364 846.473 432.364C840.107 432.364 834.946 427.235 834.946 420.909C834.946 414.583 840.107 409.455 846.473 409.455Z" stroke="none" fill="#EBEDF0"/>
<path d="M704.033 474.909C734.499 474.909 759.198 450.366 759.198 420.091C759.198 389.816 734.499 365.273 704.033 365.273C673.566 365.273 648.868 389.816 648.868 420.091C648.868 450.366 673.566 474.909 704.033 474.909Z" fill="white" stroke-width="2.5"/>
<path fill-rule="evenodd" clip-rule="evenodd" d="M695.193 462.626C698.089 463.158 701.036 463.434 704.033 463.455C728.133 463.455 747.67 444.04 747.67 420.091C747.67 396.142 728.133 376.727 704.033 376.727C697.842 376.727 691.952 378.008 686.617 380.319C677.346 384.333 669.751 391.454 665.164 400.359C662.115 406.278 660.395 412.985 660.395 420.091C660.395 426.538 661.811 432.657 664.351 438.157C666.164 442.083 668.55 445.694 671.402 448.884" fill="white"/>
<path d="M695.193 462.626C698.089 463.158 701.036 463.434 704.033 463.455C728.133 463.455 747.67 444.04 747.67 420.091C747.67 396.142 728.133 376.727 704.033 376.727C697.842 376.727 691.952 378.008 686.617 380.319C677.346 384.333 669.751 391.454 665.164 400.359C662.115 406.278 660.395 412.985 660.395 420.091C660.395 426.538 661.811 432.657 664.351 438.157C666.164 442.083 668.55 445.694 671.402 448.884" stroke-width="2.5" stroke-linecap="round"/>
<path d="M676.529 453.759C680.066 456.616 684.062 458.933 688.391 460.586" stroke-width="2.5" stroke-linecap="round"/>
<path d="M704.856 389.818C702.02 389.818 699.271 390.194 696.658 390.897C683.355 394.476 673.569 406.557 673.569 420.909" stroke-width="2.5" stroke-linecap="round"/>
<path d="M742 458L751.88 467.818" stroke-width="2.5"/>
<path fill-rule="evenodd" clip-rule="evenodd" d="M761.57 466.232C760.012 464.683 757.969 463.909 755.927 463.909C753.884 463.909 751.842 464.683 750.283 466.232C748.725 467.78 747.946 469.81 747.946 471.839C747.946 473.869 748.725 475.899 750.283 477.447L768.538 495.587C770.096 497.136 772.138 497.91 774.181 497.91C776.223 497.91 778.266 497.136 779.824 495.587C781.383 494.038 782.162 492.009 782.162 489.979C782.162 487.949 781.383 485.92 779.824 484.371L761.57 466.232Z" fill="white" stroke-width="2.5"/>
<path d="M792.421 420.545H778.958M802.835 407.818H774.552H802.835ZM814.362 407.818H810.705H814.362Z" stroke-width="2.5" stroke-linecap="round" stroke-linejoin="round"/>
<path d="M644.218 456.545H630.755M636.518 442.182H608.235H636.518ZM598.644 442.182H591.693H598.644Z" stroke-width="2.5" stroke-linecap="round" stroke-linejoin="round"/>
<path d="M778.559 370.76L792.322 384.438M792.531 370.76L778.768 384.438L792.531 370.76Z" stroke-width="2.5" stroke-linecap="round" stroke-linejoin="round"/>
<path d="M703.792 486.942L717.556 500.619M717.765 486.942L704.001 500.619L717.765 486.942Z" stroke-width="2.5" stroke-linecap="round" stroke-linejoin="round"/>
<path d="M623.186 409.455L633.066 419.273M633.066 409.455L623.186 419.273L633.066 409.455Z" stroke-width="2.5" stroke-linecap="round" stroke-linejoin="round"/>
</svg>
